<svg id="svg2" xmlns="http://www.w3.org/2000/svg" viewBox="0 0 250 276.87"><defs><style>.cls-1{fill:none;}.cls-2{fill:#c7e351;}.cls-3{fill:#74dd54;}</style></defs><path class="cls-1" d="M203.93,81.91a25.54,25.54,0,0,0,5.95-15.31,25.53,25.53,0,0,0-5.52-15.86c-9-11.91-25.83-15-39-7.82l-42,22.88L165.46,89C178.34,96.05,194.74,93.29,203.93,81.91Z"/><path class="cls-1" d="M125.33,114l-42-22.88c-13.19-7.19-30-4.08-39,7.82a24,24,0,0,0,.43,31.17c9.19,11.38,25.6,14.14,38.47,7.06Z"/><path class="cls-1" d="M45.32,195.67a24,24,0,0,0,.43,31.18C55,238.23,71.35,241,84.22,233.9l42.1-23.17-42-22.88C71.15,180.66,54.37,183.77,45.32,195.67Z"/><path class="cls-1" d="M0,0V276.87H250V0ZM235.23,201.85a72.07,72.07,0,0,1-57,26.82l-69.45,38.67C77.52,284.72,37.74,278,15.44,250,6.57,238.92,1.29,225.75,1,212.47c-.3-13.61,4.64-27.31,13.38-38.94A70.94,70.94,0,0,1,24,163.11a71.29,71.29,0,0,1-9.57-9.83C5.58,142.17.3,129,0,115.71c-.3-13.61,4.65-27.3,13.39-38.93A72.27,72.27,0,0,1,70.27,48.2q35.19-19.39,70.37-38.8c32-17.64,72.72-10,94.66,19.19C244,40.23,249,53.92,248.69,67.53c-.29,13.28-5.57,26.46-14.44,37.56a70.25,70.25,0,0,1-8.57,9,70.23,70.23,0,0,1,10.6,11.28h0C245,137,250,150.68,249.67,164.29,249.38,177.57,244.1,190.74,235.23,201.85Z"/><path class="cls-1" d="M166.33,139.67l-42,22.88,42.1,23.17c12.87,7.08,29.27,4.32,38.46-7.06a24,24,0,0,0,.44-31.17C196.3,135.59,179.52,132.48,166.33,139.67Z"/><path class="cls-2" d="M141.63,106.16c27.37-15.1,61.12-11.68,84.05,7.91a70.25,70.25,0,0,0,8.57-9c8.87-11.1,14.15-24.28,14.44-37.56.3-13.61-4.65-27.3-13.39-38.94C213.36-.62,172.64-8.24,140.64,9.4Q105.47,28.81,70.27,48.2A72.27,72.27,0,0,0,13.4,76.78C4.66,88.41-.29,102.1,0,115.71.3,129,5.58,142.17,14.45,153.28A71.29,71.29,0,0,0,24,163.11,73,73,0,0,1,71.26,145Q106.43,125.55,141.63,106.16Zm23.71-63.24c13.19-7.19,30-4.09,39,7.82a25.53,25.53,0,0,1,5.52,15.86,25.54,25.54,0,0,1-5.95,15.31c-9.19,11.38-25.59,14.14-38.47,7L123.37,65.8ZM44.77,130.09a24,24,0,0,1-.43-31.17c9-11.9,25.83-15,39-7.82l42,22.88L83.24,137.15C70.37,144.23,54,141.47,44.77,130.09Z"/><path class="cls-3" d="M236.28,125.35a70.23,70.23,0,0,0-10.6-11.28c-22.93-19.59-56.68-23-84.05-7.91q-35.19,19.4-70.37,38.8A73,73,0,0,0,24,163.11a70.94,70.94,0,0,0-9.64,10.42C5.64,185.16.7,198.86,1,212.47c.29,13.28,5.57,26.45,14.44,37.56,22.3,27.93,62.08,34.69,93.31,17.31l69.45-38.67a72.07,72.07,0,0,0,57-26.82c8.87-11.11,14.15-24.28,14.44-37.56.3-13.61-4.64-27.31-13.39-38.94ZM84.22,233.9C71.35,241,55,238.23,45.75,226.85a24,24,0,0,1-.43-31.18c9-11.9,25.83-15,39-7.82l42,22.88Zm120.69-55.24c-9.19,11.38-25.59,14.14-38.46,7.06l-42.1-23.17,42-22.88c13.19-7.19,30-4.08,39,7.82a24,24,0,0,1-.44,31.17Z"/></svg>